# xmcd
#
# Track frame offsets: 
#        150
#        21050
#        36292
#
# Disc length: 911 seconds
#
# Revision: 0
# Processed by: cddbd v1.5.2PL0 Copyright (c) Steve Scherf et al.
# Submitted via: ExactAudioCopyFreeDBPlugin 1.0
#
DISCID=1b038d03
DTITLE=大西ユカリと新世界 - 南部の女
DYEAR=2007
DGENRE=Blues
TTITLE0=南部の女
TTITLE1=本牧メルヘン
TTITLE2=ベルが鳴る
EXTD=
EXTT0=
EXTT1=
EXTT2=
PLAYORDER=
